<?xml version="1.0" encoding="utf-8"?>
<!-- Generator: Adobe Illustrator 19.1.0, SVG Export Plug-In . SVG Version: 6.00 Build 0)  -->
<svg version="1.1" id="Layer_1" xmlns="http://www.w3.org/2000/svg" xmlns:xlink="http://www.w3.org/1999/xlink" x="0px" y="0px"
	 width="46px" height="28px" viewBox="0 0 46 28" enable-background="new 0 0 46 28" xml:space="preserve">
<path fill="none" stroke="#FFFFFF" stroke-linecap="round" stroke-linejoin="round" stroke-miterlimit="10" d="M27.6,11.1
	c-1.4,0-2.6,0.4-3.7,1c-0.7-3.7-4-6.5-7.9-6.5C7.8,5.8,7.5,13.9,7.5,14c-3.1,0-6.1,2.5-6.1,5.6v0.3c0,4.4,3.7,5.7,6.8,5.7h18.8
	c0.2,0,7.8,0.3,7.7-7.4C34.6,14.4,31.5,11.1,27.6,11.1z"/>
<path fill="none" stroke="#FFFFFF" stroke-linecap="round" stroke-linejoin="round" stroke-miterlimit="10" d="M34.7,20.1
	c3,1.1,6.7-0.4,9-3.1c-1.6,0.1-3.3-0.2-4.9-1c-4.4-2.3-6.1-7.7-3.8-12.1c0.4-0.7,0.8-1.3,1.3-1.8c-3,0.2-5.7,2-7.2,4.8
	c-0.8,1.5-1.1,2.4-1.2,3.9"/>
</svg>
