<?xml version="1.0" encoding="utf-8"?>
<!-- Generator: Adobe Illustrator 19.1.0, SVG Export Plug-In . SVG Version: 6.00 Build 0)  -->
<svg version="1.1" id="Layer_1" xmlns="http://www.w3.org/2000/svg" xmlns:xlink="http://www.w3.org/1999/xlink" x="0px" y="0px"
	 width="46px" height="28px" viewBox="0 0 46 28" enable-background="new 0 0 46 28" xml:space="preserve">
<path fill="none" stroke="#FFFFFF" stroke-linecap="round" stroke-linejoin="round" stroke-miterlimit="10" d="M29.8,19.7h0.8
	c0.2,0,7.1,0.4,7-6.5c-0.1-3.5-2.9-6.5-6.4-6.5c-1.2,0-2.4,0.4-3.4,1c-0.6-3.4-3.6-5.9-7.1-5.9c-7.5,0.1-7.8,7.5-7.8,7.6
	c-2.8,0-5.6,2.3-5.6,5.1v0.3c0,4,3.6,5.1,6.4,5.1"/>
<line fill="none" stroke="#FFFFFF" stroke-linecap="round" stroke-miterlimit="10" x1="16.3" y1="19.2" x2="16.3" y2="22.2"/>
<line fill="none" stroke="#FFFFFF" stroke-linecap="round" stroke-miterlimit="10" x1="20.3" y1="17.2" x2="20.3" y2="19.2"/>
<line fill="none" stroke="#FFFFFF" stroke-linecap="round" stroke-miterlimit="10" x1="27.3" y1="19.2" x2="27.3" y2="22.2"/>
<line fill="none" stroke="#FFFFFF" stroke-linecap="round" stroke-miterlimit="10" x1="23.3" y1="22.2" x2="23.3" y2="26.2"/>
</svg>
