<?xml version="1.0" encoding="utf-8"?>
<!-- Generator: Adobe Illustrator 19.1.0, SVG Export Plug-In . SVG Version: 6.00 Build 0)  -->
<svg version="1.1" id="Layer_1" xmlns="http://www.w3.org/2000/svg" xmlns:xlink="http://www.w3.org/1999/xlink" x="0px" y="0px"
	 width="46px" height="28px" viewBox="0 0 46 28" enable-background="new 0 0 46 28" xml:space="preserve">
<g>
	<path fill="none" stroke="#FFFFFF" stroke-miterlimit="10" d="M25.4,9.9c0.2-2.5,2.3-4.4,4.8-4.4c2.7,0,4.8,2.2,4.8,4.8
		s-2.2,4.8-4.8,4.8c-0.2,0-0.4,0-0.5,0"/>
	<line fill="none" stroke="#FFFFFF" stroke-linecap="round" stroke-miterlimit="10" x1="22.9" y1="4.4" x2="24.5" y2="5.8"/>
	<line fill="none" stroke="#FFFFFF" stroke-linecap="round" stroke-miterlimit="10" x1="34.3" y1="16.6" x2="35.6" y2="18.2"/>
	<line fill="none" stroke="#FFFFFF" stroke-linecap="round" stroke-miterlimit="10" x1="30.7" y1="1.2" x2="30.6" y2="3.3"/>
	<line fill="none" stroke="#FFFFFF" stroke-linecap="round" stroke-miterlimit="10" x1="37.3" y1="3.8" x2="35.8" y2="5.3"/>
	<line fill="none" stroke="#FFFFFF" stroke-linecap="round" stroke-miterlimit="10" x1="39.7" y1="11.4" x2="37.6" y2="11.4"/>
	<path fill="none" stroke="#FFFFFF" stroke-linecap="round" stroke-linejoin="round" stroke-miterlimit="10" d="M22.8,19.7h0.9
		c0.1,0,5.3,0.1,5.2-5c0-2.6-2.1-4.9-4.8-4.9c-0.9,0-1.8,0.3-2.5,0.7C21.1,7.9,18.9,6,16.3,6c-5.6,0.1-5.8,5.6-5.8,5.6
		c-2.1,0-4.2,1.7-4.2,3.8v0.2c0,3,2.5,4,4.6,4"/>
	<line fill="none" stroke="#FFFFFF" stroke-linecap="round" stroke-miterlimit="10" x1="13.3" y1="19.2" x2="13.3" y2="21.2"/>
	<line fill="none" stroke="#FFFFFF" stroke-linecap="round" stroke-miterlimit="10" x1="16.3" y1="17.2" x2="16.3" y2="19.2"/>
	<line fill="none" stroke="#FFFFFF" stroke-linecap="round" stroke-miterlimit="10" x1="21.3" y1="19.2" x2="21.3" y2="21.2"/>
	<line fill="none" stroke="#FFFFFF" stroke-linecap="round" stroke-miterlimit="10" x1="15.3" y1="24.2" x2="15.3" y2="26.2"/>
	<line fill="none" stroke="#FFFFFF" stroke-linecap="round" stroke-miterlimit="10" x1="18.3" y1="21.2" x2="18.3" y2="24.2"/>
</g>
</svg>
