<?xml version="1.0" encoding="utf-8"?>
<!-- Generator: Adobe Illustrator 19.1.0, SVG Export Plug-In . SVG Version: 6.00 Build 0)  -->
<svg version="1.1" id="Layer_1" xmlns="http://www.w3.org/2000/svg" xmlns:xlink="http://www.w3.org/1999/xlink" x="0px" y="0px"
	 width="46px" height="28px" viewBox="0 0 46 28" enable-background="new 0 0 46 28" xml:space="preserve">
<image overflow="visible" width="4608" height="3072" xlink:href="74FE2ABDAA5799C5.jpg"  transform="matrix(0.3021 0 0 0.3021 -1678.9136 -1000.6582)">
</image>
<rect x="-1251.5" y="-572.9" fill="#FFFFFF" width="86.6" height="31.7"/>
<rect x="-1158.2" y="-572.9" fill="#FFFFFF" stroke="#B3B3B3" stroke-miterlimit="10" width="463" height="31.7"/>
<g>
	
		<circle fill="none" stroke="#999999" stroke-width="2" stroke-linecap="round" stroke-miterlimit="10" cx="-711.6" cy="-557.9" r="5.3"/>
	
		<line fill="none" stroke="#999999" stroke-width="2" stroke-linecap="round" stroke-miterlimit="10" x1="-708.3" y1="-553.8" x2="-704.7" y2="-549.9"/>
</g>
<line fill="#FFFFFF" stroke="#E6E6E6" stroke-miterlimit="10" x1="-1181.7" y1="-570.8" x2="-1181.7" y2="-541.8"/>
<polygon fill="#666666" points="-1172.8,-556.7 -1175.8,-559.7 -1169.8,-559.7 "/>
<line opacity="0.58" fill="none" stroke="#CCCCCC" stroke-miterlimit="10" x1="-216.2" y1="-126.3" x2="-1732.2" y2="-126.3"/>
<text transform="matrix(1 0 0 1 -509.612 -102.7623)" fill="#F2F2F2" font-family="'NHaasGroteskDSPro-35XLt'" font-size="12px">EULA </text>
<text transform="matrix(1 0 0 1 -450.1862 -102.7625)" fill="#F2F2F2" font-family="'NHaasGroteskDSPro-35XLt'" font-size="12px">Privacy Policy</text>
<text transform="matrix(1 0 0 1 -358.6999 -102.7625)" fill="#F2F2F2" font-family="'NHaasGroteskDSPro-35XLt'" font-size="12px">Settings</text>
<text transform="matrix(1 0 0 1 -1599.1666 -823.1663)" fill="#808080" font-family="'NHaasGroteskDSPro-35XLt'" font-size="14px">Web</text>
<text transform="matrix(1 0 0 1 -1528.5792 -823.1668)" fill="#F2F2F2" font-family="'NHaasGroteskDSPro-35XLt'" font-size="14px">Images</text>
<text transform="matrix(1 0 0 1 -1448.2545 -823.1668)" fill="#F2F2F2" font-family="'NHaasGroteskDSPro-35XLt'" font-size="14px">videos</text>
<text transform="matrix(1 0 0 1 -511.6667 -799.1214)" fill="#F2F2F2" font-family="'NHaasGroteskDSPro-35XLt'" font-size="40px">12:35</text>
<rect x="-422.8" y="-823.2" fill="none" width="96.7" height="28.3"/>
<text transform="matrix(1 0 0 1 -422.8336 -815.3011)"><tspan x="0" y="0" fill="#F2F2F2" font-family="'NHaasGroteskDSPro-35XLt'" font-size="11px">Wednesday</tspan><tspan x="0" y="12.4" fill="#F2F2F2" font-family="'NHaasGroteskDSPro-35XLt'" font-size="11px">14.10.2015</tspan></text>
<g>
	<circle fill="none" stroke="#F2F2F2" stroke-miterlimit="10" cx="-346.4" cy="-833.5" r="7.3"/>
	<polyline fill="none" stroke="#F2F2F2" stroke-miterlimit="10" points="-346.7,-836.8 -346.7,-833.3 -343.2,-833.3 	"/>
</g>
<path fill="#F2F2F2" d="M-311.1-828.5c0.8-0.9,1.3-2,1.3-3.3c0-2.7-2.2-4.9-4.9-4.9c-0.4,0-0.7,0-1.1,0.1c-0.7-2.3-2.8-3.9-5.4-3.9
	c-3.1,0-5.6,2.5-5.6,5.6c0,0.1,0,0.1,0,0.2c-1.8,0.1-3.4,1.6-3.4,3.4v0.6c0,1.9,1.6,3.8,3.5,3.8h10.5c0.5,0,2.8-0.1,3.4-0.4
	C-312.1-827.4-311.5-828-311.1-828.5z"/>
<rect x="-1158.2" y="-536.2" fill="#F2F2F2" width="463" height="103.7"/>
<rect x="-1144" y="-562.8" fill="none" width="322.5" height="17.7"/>
<text transform="matrix(1 0 0 1 -1144.0416 -552.5067)" fill="#333333" font-family="'Lato-Regular'" font-size="14px">Hotel</text>
<rect x="-1144" y="-527.7" fill="none" width="322.5" height="17.7"/>
<text transform="matrix(1 0 0 1 -1144.0416 -517.303)"><tspan x="0" y="0" fill="#333333" font-family="'Lato-Regular'" font-size="14px">Hotel</tspan><tspan x="34.5" y="0" fill="#333333" font-family="'Lato-Bold'" font-size="14px">scombined</tspan></text>
<rect x="-1144" y="-504.1" fill="none" width="322.5" height="17.7"/>
<text transform="matrix(1 0 0 1 -1144.0416 -493.7269)"><tspan x="0" y="0" fill="#333333" font-family="'Lato-Regular'" font-size="14px">Hotel</tspan><tspan x="34.5" y="0" fill="#333333" font-family="'Lato-Bold'" font-size="14px">s</tspan></text>
<rect x="-1144" y="-480.6" fill="none" width="322.5" height="17.7"/>
<text transform="matrix(1 0 0 1 -1144.0416 -470.1493)"><tspan x="0" y="0" fill="#333333" font-family="'Lato-Regular'" font-size="14px">Hotel</tspan><tspan x="34.5" y="0" fill="#333333" font-family="'Lato-Bold'" font-size="14px"> california</tspan></text>
<rect x="-1144" y="-457" fill="none" width="322.5" height="17.7"/>
<text transform="matrix(1 0 0 1 -1144.0416 -446.5741)"><tspan x="0" y="0" fill="#333333" font-family="'Lato-Regular'" font-size="14px">Hotel</tspan><tspan x="34.5" y="0" fill="#333333" font-family="'Lato-Bold'" font-size="14px">s4u</tspan></text>
<image overflow="visible" width="4608" height="3072" xlink:href="74FE2ABDAA5799C7.jpg"  transform="matrix(0.3021 0 0 0.3021 -1651.9136 -56.6582)">
</image>
<rect x="-1224.5" y="371.1" fill="#FFFFFF" width="86.6" height="31.7"/>
<rect x="-1131.2" y="371.1" fill="#FFFFFF" stroke="#B3B3B3" stroke-miterlimit="10" width="463" height="31.7"/>
<g>
	
		<circle fill="none" stroke="#999999" stroke-width="2" stroke-linecap="round" stroke-miterlimit="10" cx="-684.6" cy="386.1" r="5.3"/>
	
		<line fill="none" stroke="#999999" stroke-width="2" stroke-linecap="round" stroke-miterlimit="10" x1="-681.3" y1="390.2" x2="-677.7" y2="394.1"/>
</g>
<line fill="#FFFFFF" stroke="#E6E6E6" stroke-miterlimit="10" x1="-1154.7" y1="373.2" x2="-1154.7" y2="402.2"/>
<polygon fill="#666666" points="-1145.8,387.3 -1148.8,384.3 -1142.8,384.3 "/>
<line opacity="0.58" fill="none" stroke="#CCCCCC" stroke-miterlimit="10" x1="-267.2" y1="817.7" x2="-1783.2" y2="817.7"/>
<text transform="matrix(1 0 0 1 -482.612 841.2377)" fill="#F2F2F2" font-family="'NHaasGroteskDSPro-35XLt'" font-size="12px">EULA </text>
<text transform="matrix(1 0 0 1 -423.1862 841.2375)" fill="#F2F2F2" font-family="'NHaasGroteskDSPro-35XLt'" font-size="12px">Privacy Policy</text>
<text transform="matrix(1 0 0 1 -331.6999 841.2375)" fill="#F2F2F2" font-family="'NHaasGroteskDSPro-35XLt'" font-size="12px">Settings</text>
<text transform="matrix(1 0 0 1 -1604.6119 120.8337)" fill="#808080" font-family="'NHaasGroteskDSPro-35XLt'" font-size="14px">Web</text>
<text transform="matrix(1 0 0 1 -1534.0245 120.8332)" fill="#F2F2F2" font-family="'NHaasGroteskDSPro-35XLt'" font-size="14px">Images</text>
<text transform="matrix(1 0 0 1 -1453.6998 120.8332)" fill="#F2F2F2" font-family="'NHaasGroteskDSPro-35XLt'" font-size="14px">videos</text>
<rect x="-1131.2" y="407.8" fill="#F2F2F2" width="463" height="103.7"/>
<rect x="-1117" y="381.2" fill="none" width="322.5" height="17.7"/>
<text transform="matrix(1 0 0 1 -1117.0416 391.4933)" fill="#333333" font-family="'Lato-Regular'" font-size="14px">Hotel</text>
<rect x="-1117" y="416.3" fill="none" width="322.5" height="17.7"/>
<text transform="matrix(1 0 0 1 -1117.0416 426.6969)"><tspan x="0" y="0" fill="#333333" font-family="'Lato-Regular'" font-size="14px">Hotel</tspan><tspan x="34.5" y="0" fill="#333333" font-family="'Lato-Bold'" font-size="14px">scombined</tspan></text>
<rect x="-1117" y="439.9" fill="none" width="322.5" height="17.7"/>
<text transform="matrix(1 0 0 1 -1117.0416 450.2731)"><tspan x="0" y="0" fill="#333333" font-family="'Lato-Regular'" font-size="14px">Hotel</tspan><tspan x="34.5" y="0" fill="#333333" font-family="'Lato-Bold'" font-size="14px">s</tspan></text>
<rect x="-1117" y="463.4" fill="none" width="322.5" height="17.7"/>
<text transform="matrix(1 0 0 1 -1117.0416 473.8507)"><tspan x="0" y="0" fill="#333333" font-family="'Lato-Regular'" font-size="14px">Hotel</tspan><tspan x="34.5" y="0" fill="#333333" font-family="'Lato-Bold'" font-size="14px"> california</tspan></text>
<rect x="-1117" y="487" fill="none" width="322.5" height="17.7"/>
<text transform="matrix(1 0 0 1 -1117.0416 497.4259)"><tspan x="0" y="0" fill="#333333" font-family="'Lato-Regular'" font-size="14px">Hotel</tspan><tspan x="34.5" y="0" fill="#333333" font-family="'Lato-Bold'" font-size="14px">s4u</tspan></text>
<g>
	<text transform="matrix(1 0 0 1 -472.4167 144.8786)" fill="#F2F2F2" font-family="'NHaasGroteskDSPro-35XLt'" font-size="40px">22</text>
	<circle fill="none" stroke="#F2F2F2" stroke-miterlimit="10" cx="-428.7" cy="117.2" r="3"/>
</g>
<g>
	<path fill="none" stroke="#FFFFFF" stroke-miterlimit="10" d="M-380,118c-0.8,0-1.5,0.2-2.2,0.6c-0.4-2.2-2.3-3.9-4.6-3.8
		c-4.9,0.1-5.1,4.8-5.1,4.9c-1.8,0-3.7,1.5-3.7,3.3v0.2c0,2.6,2.3,3.5,4.2,3.5h11.1c0.1,0,4.6,0.1,4.5-4.4
		C-375.9,120-377.7,118-380,118z"/>
	<path fill="none" stroke="#FFFFFF" stroke-miterlimit="10" d="M-379.8,118.1c0.2-2.1,2-3.8,4.2-3.8c2.3,0,4.2,1.9,4.2,4.2
		c0,2.3-1.9,4.2-4.2,4.2c-0.2,0-0.3,0-0.5,0"/>
	<line fill="none" stroke="#FFFFFF" stroke-linecap="round" stroke-miterlimit="10" x1="-382" y1="113.2" x2="-380.6" y2="114.5"/>
	<line fill="none" stroke="#FFFFFF" stroke-linecap="round" stroke-miterlimit="10" x1="-372" y1="123.9" x2="-370.9" y2="125.3"/>
	
		<line fill="none" stroke="#FFFFFF" stroke-linecap="round" stroke-miterlimit="10" x1="-375.2" y1="110.5" x2="-375.3" y2="112.3"/>
	
		<line fill="none" stroke="#FFFFFF" stroke-linecap="round" stroke-miterlimit="10" x1="-369.5" y1="112.8" x2="-370.8" y2="114.1"/>
	
		<line fill="none" stroke="#FFFFFF" stroke-linecap="round" stroke-miterlimit="10" x1="-367.4" y1="119.3" x2="-369.2" y2="119.3"/>
</g>
<path fill="none" stroke="#FFFFFF" stroke-linecap="round" stroke-linejoin="round" stroke-miterlimit="10" d="M6.1,151.8
	c-0.9,0-1.8,0.3-2.5,0.7c-0.5-2.5-2.7-4.4-5.3-4.4c-5.6,0.1-5.8,5.6-5.8,5.6c-2.1,0-4.2,1.7-4.2,3.8v0.2c0,3,2.5,3.9,4.6,3.9H5.7
	c0.1,0,5.3,0.2,5.2-5C10.9,154,8.8,151.8,6.1,151.8z"/>
<path fill="none" stroke="#FFFFFF" stroke-linecap="round" stroke-linejoin="round" stroke-miterlimit="10" d="M6.1,187.4
	c-0.9,0-1.8,0.3-2.5,0.7c-0.5-2.5-2.7-4.4-5.3-4.4c-5.6,0.1-5.8,5.6-5.8,5.6c-2.1,0-4.2,1.7-4.2,3.8v0.2c0,3,2.5,4.3,4.6,4.3H5.7
	c0.1,0,5.3,0,5.2-5.2C10.9,189.9,8.8,187.4,6.1,187.4z"/>
<path fill="none" stroke="#FFFFFF" stroke-linecap="round" stroke-linejoin="round" stroke-miterlimit="10" d="M4.8,268.7h0.9
	c0.1,0,5.3,0.1,5.2-5c0-2.6-2.1-4.9-4.8-4.9c-0.9,0-1.8,0.3-2.5,0.7c-0.5-2.5-2.7-4.4-5.3-4.4c-5.6,0.1-5.8,5.6-5.8,5.6
	c-2.1,0-4.2,1.7-4.2,3.8v0.2c0,3,2.5,4,4.6,4"/>
<path fill="none" stroke="#FFFFFF" stroke-linecap="round" stroke-linejoin="round" stroke-miterlimit="10" d="M4.8,303.7h0.9
	c0.1,0,5.3-0.1,5.2-5.3c0-2.6-2.1-5.1-4.8-5.1c-0.9,0-1.8,0.2-2.5,0.6c-0.5-2.5-2.7-4.5-5.3-4.4c-5.6,0.1-5.8,5.6-5.8,5.6
	c-2.1,0-4.2,1.7-4.2,3.8v0.2c0,3,2.5,4.3,4.6,4.3"/>
<path fill="none" stroke="#FFFFFF" stroke-linecap="round" stroke-linejoin="round" stroke-miterlimit="10" d="M10.8,230.7h2.9
	c0.1,0,5.3,0.2,5.2-5c0-2.6-2.1-4.9-4.8-4.9c-0.9,0-1.8,0.3-2.5,0.7c-0.5-2.5-2.7-4.4-5.3-4.4c-3.8,0.1-5.2,2.5-5.6,4.2"/>
<path fill="none" stroke="#FFFFFF" stroke-miterlimit="10" d="M6.4,151.9c0.2-2.5,2.3-4.4,4.8-4.4c2.7,0,4.8,2.2,4.8,4.8
	c0,2.7-2.2,4.8-4.8,4.8c-0.2,0-0.4,0-0.5,0"/>
<line fill="none" stroke="#FFFFFF" stroke-linecap="round" stroke-miterlimit="10" x1="3.9" y1="146.4" x2="5.5" y2="147.8"/>
<line fill="none" stroke="#FFFFFF" stroke-linecap="round" stroke-miterlimit="10" x1="15.3" y1="158.6" x2="16.6" y2="160.2"/>
<line fill="none" stroke="#FFFFFF" stroke-linecap="round" stroke-miterlimit="10" x1="11.7" y1="143.2" x2="11.6" y2="145.3"/>
<line fill="none" stroke="#FFFFFF" stroke-linecap="round" stroke-miterlimit="10" x1="18.3" y1="145.8" x2="16.8" y2="147.3"/>
<line fill="none" stroke="#FFFFFF" stroke-linecap="round" stroke-miterlimit="10" x1="20.7" y1="153.4" x2="18.6" y2="153.4"/>
<path fill="none" stroke="#FFFFFF" stroke-linecap="round" stroke-linejoin="round" stroke-miterlimit="10" d="M68.1,151.8
	c-0.9,0-1.8,0.3-2.5,0.7c-0.5-2.5-2.7-4.4-5.3-4.4c-5.6,0.1-5.8,5.6-5.8,5.6c-2.1,0-4.2,1.7-4.2,3.8v0.2c0,3,2.5,3.9,4.6,3.9h12.8
	c0.1,0,5.3,0.2,5.2-5C72.9,154,70.8,151.8,68.1,151.8z"/>
<g>
	<text transform="matrix(1 0 0 1 -423.6667 144.6667)" fill="#F2F2F2" font-family="'NHaasGroteskDSPro-35XLt'" font-size="40px">c</text>
</g>
<image overflow="visible" width="1165" height="712" xlink:href="74FE2ABDAA5799C5.png"  transform="matrix(1 0 0 1 -210.1667 -858.8333)">
</image>
<g>
	<circle fill="none" stroke="#FFFFFF" stroke-miterlimit="10" cx="4.3" cy="111.2" r="6.1"/>
	<line fill="none" stroke="#FFFFFF" stroke-linecap="round" stroke-miterlimit="10" x1="4.3" y1="98.2" x2="4.3" y2="101.2"/>
	<line fill="none" stroke="#FFFFFF" stroke-linecap="round" stroke-miterlimit="10" x1="4.3" y1="120.2" x2="4.3" y2="124.2"/>
	<line fill="none" stroke="#FFFFFF" stroke-linecap="round" stroke-miterlimit="10" x1="15.8" y1="104.4" x2="13.5" y2="106"/>
	<line fill="none" stroke="#FFFFFF" stroke-linecap="round" stroke-miterlimit="10" x1="16.1" y1="117" x2="13.7" y2="115.5"/>
	<line fill="none" stroke="#FFFFFF" stroke-linecap="round" stroke-miterlimit="10" x1="-7.3" y1="104.4" x2="-5" y2="106"/>
	<line fill="none" stroke="#FFFFFF" stroke-linecap="round" stroke-miterlimit="10" x1="-7.7" y1="116.9" x2="-5.1" y2="115.7"/>
</g>
<path fill="none" stroke="#FFFFFF" stroke-linecap="round" stroke-linejoin="round" stroke-miterlimit="10" d="M6.1,224.2
	c-0.9,0-1.8,0.3-2.5,0.7c-0.5-2.5-2.7-4.4-5.3-4.4c-5.6,0.1-5.8,5.6-5.8,5.6c-2.1,0-4.2,1.7-4.2,3.8v0.2c0,3,2.5,4.5,4.6,4.5H5.7
	c0.1,0,5.3-0.1,5.2-5.3C10.9,226.7,8.8,224.2,6.1,224.2z"/>
<line fill="none" stroke="#FFFFFF" stroke-linecap="round" stroke-miterlimit="10" x1="-4.7" y1="268.2" x2="-4.7" y2="270.2"/>
<line fill="none" stroke="#FFFFFF" stroke-linecap="round" stroke-miterlimit="10" x1="-1.7" y1="266.2" x2="-1.7" y2="268.2"/>
<line fill="none" stroke="#FFFFFF" stroke-linecap="round" stroke-miterlimit="10" x1="3.3" y1="268.2" x2="3.3" y2="270.2"/>
<line fill="none" stroke="#FFFFFF" stroke-linecap="round" stroke-miterlimit="10" x1="-2.7" y1="273.2" x2="-2.7" y2="275.2"/>
<line fill="none" stroke="#FFFFFF" stroke-linecap="round" stroke-miterlimit="10" x1="0.3" y1="270.2" x2="0.3" y2="273.2"/>
<polyline fill="none" stroke="#FFFFFF" stroke-linecap="round" stroke-linejoin="round" stroke-miterlimit="10" points="-3.5,300.9 
	-1.9,304.7 -4.9,303.2 -2.7,308.9 "/>
<polyline fill="none" stroke="#FFFFFF" stroke-linecap="round" stroke-linejoin="round" stroke-miterlimit="10" points="1.7,303.2 
	2.7,305.6 0.9,304.6 2.2,308.1 "/>
<g id="_x30_E7NGr.tif">
	<g>
		<path fill="#FFFFFF" d="M-1.8,323.7c0-0.5,0-1,0-1.4c0-0.3,0.2-0.6,0.6-0.5c0.3,0,0.5,0.2,0.5,0.6c0,0.5,0,0.9,0,1.4
			c0.1-0.1,0.1-0.1,0.2-0.2c0.3-0.3,0.5-0.5,0.8-0.8c0.2-0.2,0.6-0.3,0.8,0c0.2,0.2,0.2,0.6,0,0.8c-0.5,0.5-1.1,1.1-1.6,1.6
			c-0.1,0.1-0.1,0.1-0.1,0.2c0,1.7,0,3.4,0,5c0,0,0,0.1,0,0.1c0.1,0,0.1-0.1,0.2-0.1c1.4-0.8,2.9-1.6,4.3-2.5
			c0.1-0.1,0.2-0.1,0.2-0.2c0.2-0.7,0.4-1.5,0.6-2.2c0.1-0.4,0.5-0.6,0.8-0.4c0.2,0.1,0.3,0.4,0.3,0.7c-0.1,0.4-0.2,0.8-0.3,1.1
			c0,0,0,0.1,0,0.2c0.4-0.2,0.8-0.5,1.2-0.7c0.1,0,0.2-0.1,0.2-0.1c0.3-0.1,0.5,0.1,0.6,0.3c0.1,0.3,0,0.5-0.2,0.7
			c-0.3,0.2-0.7,0.4-1.1,0.6c0,0-0.1,0.1-0.2,0.1c0.1,0,0.2,0.1,0.3,0.1c0.3,0.1,0.7,0.2,1,0.3c0.3,0.1,0.4,0.3,0.4,0.6
			c0,0.3-0.2,0.5-0.5,0.5c-0.1,0-0.2,0-0.3,0c-0.7-0.2-1.5-0.4-2.2-0.6c-0.1,0-0.2,0-0.2,0c-1.5,0.8-2.9,1.7-4.4,2.5
			c0,0,0,0-0.1,0.1c0.1,0,0.1,0.1,0.1,0.1c1.4,0.8,2.9,1.7,4.3,2.5c0.1,0,0.2,0.1,0.3,0c0.8-0.2,1.5-0.4,2.3-0.6
			c0.2-0.1,0.4,0,0.6,0.2c0.1,0.2,0.2,0.4,0,0.6c-0.1,0.1-0.2,0.2-0.3,0.2c-0.4,0.1-0.8,0.2-1.3,0.4c0.1,0,0.1,0.1,0.2,0.1
			c0.4,0.2,0.7,0.4,1.1,0.6c0.2,0.1,0.3,0.4,0.2,0.7c-0.1,0.2-0.3,0.4-0.6,0.4c-0.1,0-0.2-0.1-0.3-0.1c-0.4-0.2-0.8-0.4-1.2-0.7
			c0,0.1,0,0.1,0,0.2c0.1,0.4,0.2,0.7,0.3,1.1c0.1,0.4-0.1,0.6-0.4,0.7c-0.3,0.1-0.6-0.1-0.7-0.5c-0.2-0.7-0.4-1.5-0.6-2.2
			c0-0.1-0.1-0.1-0.1-0.2c-1.5-0.9-2.9-1.7-4.4-2.5c0,0,0,0-0.1,0c0,0.1,0,0.1,0,0.2c0,1.7,0,3.3,0,5c0,0.1,0,0.2,0.1,0.2
			c0.5,0.5,1.1,1.1,1.6,1.6c0.2,0.2,0.2,0.3,0.2,0.6c-0.1,0.4-0.6,0.5-0.9,0.2c-0.3-0.3-0.6-0.6-0.8-0.8c0,0-0.1-0.1-0.1-0.1
			c0,0.1,0,0.2,0,0.2c0,0.4,0,0.8,0,1.2c0,0.3-0.2,0.6-0.5,0.6c-0.3,0-0.5-0.2-0.5-0.5c0-0.5,0-0.9,0-1.4c0,0-0.1,0.1-0.1,0.1
			c-0.3,0.3-0.6,0.6-0.9,0.9c-0.3,0.3-0.8,0.2-0.9-0.2c-0.1-0.2,0-0.4,0.2-0.6c0.6-0.5,1.1-1.1,1.7-1.6c0,0,0.1-0.1,0.1-0.2
			c0-1.7,0-3.4,0-5.1c0,0,0,0,0-0.1c0,0-0.1,0-0.1,0.1c-1.5,0.8-2.9,1.7-4.4,2.5c-0.1,0-0.1,0.1-0.2,0.2c-0.2,0.8-0.4,1.5-0.6,2.3
			c-0.1,0.3-0.4,0.5-0.7,0.4c-0.3-0.1-0.4-0.4-0.4-0.6c0.1-0.4,0.2-0.8,0.3-1.2c0,0,0-0.1,0-0.1c-0.4,0.2-0.8,0.5-1.2,0.7
			c-0.1,0.1-0.3,0.1-0.5,0.1c-0.2-0.1-0.4-0.2-0.4-0.5c0-0.2,0.1-0.4,0.3-0.5c0.4-0.2,0.7-0.4,1.1-0.6c0,0,0.1-0.1,0.2-0.1
			c-0.4-0.1-0.7-0.2-1.1-0.3c-0.1,0-0.2,0-0.3-0.1c-0.3-0.1-0.4-0.4-0.3-0.7c0.1-0.3,0.4-0.5,0.6-0.4c0.8,0.2,1.5,0.4,2.3,0.6
			c0.1,0,0.2,0,0.3,0c1.4-0.8,2.9-1.7,4.3-2.5c0,0,0.1,0,0.1-0.1c-0.1,0-0.1-0.1-0.2-0.1c-1.4-0.8-2.9-1.6-4.3-2.5
			c-0.1-0.1-0.2-0.1-0.3,0c-0.7,0.2-1.5,0.4-2.2,0.6c-0.5,0.1-0.8-0.2-0.7-0.6c0-0.2,0.2-0.4,0.4-0.4c0.4-0.1,0.8-0.2,1.2-0.3
			c0,0,0.1,0,0.1,0c-0.1,0-0.1-0.1-0.1-0.1c-0.3-0.2-0.7-0.4-1-0.6c-0.3-0.2-0.4-0.5-0.2-0.8c0.2-0.3,0.5-0.4,0.8-0.2
			c0.4,0.2,0.8,0.4,1.2,0.7c0-0.1-0.1-0.2-0.1-0.3c-0.1-0.3-0.2-0.6-0.3-1c-0.1-0.4,0.1-0.7,0.4-0.8c0.3-0.1,0.6,0.1,0.7,0.5
			c0.2,0.7,0.4,1.5,0.6,2.2c0,0.1,0.1,0.2,0.1,0.2c1.5,0.9,3,1.7,4.4,2.5c0,0,0,0,0.1,0c0-0.1,0-0.1,0-0.2c0-1.7,0-3.3,0-5
			c0-0.1,0-0.2-0.1-0.3c-0.6-0.5-1.1-1.1-1.6-1.6c-0.2-0.2-0.2-0.3-0.2-0.5c0.1-0.4,0.6-0.6,0.9-0.3c0.3,0.3,0.6,0.6,0.9,0.8
			C-1.9,323.6-1.9,323.6-1.8,323.7z"/>
	</g>
</g>
<path fill="none" stroke="#FFFFFF" stroke-linecap="round" stroke-linejoin="round" stroke-miterlimit="10" d="M-4.2,375.7h8.7
	c0.1,0,5.3,0.1,5.2-5.1c0-2.6-2.1-5-4.8-5c-0.9,0-1.8,0.2-2.5,0.7c-0.5-2.5-2.7-4.4-5.3-4.4c-5.6,0.1-5.8,5.6-5.8,5.7"/>
<line fill="none" stroke="#FFFFFF" stroke-linecap="round" stroke-linejoin="round" stroke-miterlimit="10" x1="-5.2" y1="369.7" x2="-18.2" y2="369.7"/>
<line fill="none" stroke="#FFFFFF" stroke-linecap="round" stroke-linejoin="round" stroke-miterlimit="10" x1="-7.2" y1="374.7" x2="-18.2" y2="374.7"/>
<line fill="none" stroke="#FFFFFF" stroke-linecap="round" stroke-linejoin="round" stroke-miterlimit="10" x1="-4.2" y1="371.7" x2="-11.2" y2="371.7"/>
<path fill="none" stroke="#FFFFFF" stroke-linecap="round" stroke-linejoin="round" stroke-miterlimit="10" d="M73.5,118.2
	c-3.6-1.9-5-6.2-3.1-9.8c0.3-0.6,0.6-1,1-1.5c-2.4,0.2-4.7,1.6-5.9,3.9c-1.9,3.6-0.5,8,3.1,9.8c3,1.6,6.6,0.8,8.8-1.6
	C76.2,119.1,74.8,118.9,73.5,118.2z"/>
<path fill="none" stroke="#FFFFFF" stroke-linecap="round" stroke-linejoin="round" stroke-miterlimit="10" d="M73,157.9
	c2,0.8,4.5-0.3,6.1-2.1c-1.1,0.1-2.2-0.1-3.3-0.7c-3-1.5-4.1-5.2-2.6-8.2c0.2-0.5,0.5-0.9,0.9-1.2c-2,0.2-3.9,1.3-4.9,3.2
	c-0.5,1-0.7,1.6-0.8,2.6"/>
<g>
	
		<line fill="none" stroke="#FFFFFF" stroke-linecap="round" stroke-linejoin="round" stroke-miterlimit="10" x1="62.1" y1="103.1" x2="64.3" y2="105.8"/>
	
		<line fill="none" stroke="#FFFFFF" stroke-linecap="round" stroke-linejoin="round" stroke-miterlimit="10" x1="64.5" y1="103.3" x2="61.9" y2="105.6"/>
</g>
<g>
	
		<line fill="none" stroke="#FFFFFF" stroke-linecap="round" stroke-linejoin="round" stroke-miterlimit="10" x1="58.6" y1="110" x2="60.9" y2="112.7"/>
	
		<line fill="none" stroke="#FFFFFF" stroke-linecap="round" stroke-linejoin="round" stroke-miterlimit="10" x1="61.1" y1="110.2" x2="58.4" y2="112.5"/>
</g>
<g>
	<g opacity="0.7">
		<path fill="none" stroke="#FFFFFF" stroke-linecap="round" stroke-miterlimit="10" d="M125.8,108.7c3.7,0,3.7,2,7.4,2
			c3.7,0,3.7-2,7.4-2c3.7,0,3.7,2,7.4,2c3.7,0,3.7-2,7.4-2s3.7,2,7.4,2"/>
	</g>
	<g>
		<path fill="none" stroke="#FFFFFF" stroke-linecap="round" stroke-miterlimit="10" d="M125.8,112.7c3.7,0,3.7,2,7.4,2
			c3.7,0,3.7-2,7.4-2c3.7,0,3.7,2,7.4,2c3.7,0,3.7-2,7.4-2s3.7,2,7.4,2"/>
	</g>
	<g>
		<path fill="none" stroke="#FFFFFF" stroke-linecap="round" stroke-miterlimit="10" d="M125.8,116.7c3.7,0,3.7,2,7.4,2
			c3.7,0,3.7-2,7.4-2c3.7,0,3.7,2,7.4,2c3.7,0,3.7-2,7.4-2s3.7,2,7.4,2"/>
	</g>
	<g>
		<path fill="none" stroke="#FFFFFF" stroke-linecap="round" stroke-miterlimit="10" d="M125.8,120.7c3.7,0,3.7,2,7.4,2
			c3.7,0,3.7-2,7.4-2c3.7,0,3.7,2,7.4,2c3.7,0,3.7-2,7.4-2s3.7,2,7.4,2"/>
	</g>
</g>
<path fill="none" stroke="#FFFFFF" stroke-linecap="round" stroke-linejoin="round" stroke-miterlimit="10" d="M32.8,19.7h3.9
	c0.2,0,7.4,0.4,7.3-6.8c-0.1-3.7-3-6.7-6.7-6.7c-1.3,0-2.5,0.4-3.5,1.1c-0.7-3.5-3.7-6.1-7.4-6.1c-5.3,0.1-7.1,3.3-7.8,5.6"/>
<path fill="none" stroke="#FFFFFF" stroke-linecap="round" stroke-linejoin="round" stroke-miterlimit="10" d="M26.1,11.1
	c-1.3,0-2.5,0.4-3.5,1C22,8.6,18.9,5.9,15.2,6c-7.8,0.1-8.1,7.8-8.1,7.9c-2.9,0-5.8,2.4-5.8,5.3v0.3c0,4.2,3.5,6.2,6.4,6.2h17.8
	c0.2,0,7.4-0.2,7.3-7.4C32.7,14.6,29.8,11.1,26.1,11.1z"/>
</svg>
