<?xml version="1.0" encoding="utf-8"?>
<!-- Generator: Adobe Illustrator 19.1.0, SVG Export Plug-In . SVG Version: 6.00 Build 0)  -->
<svg version="1.1" id="Layer_1" xmlns="http://www.w3.org/2000/svg" xmlns:xlink="http://www.w3.org/1999/xlink" x="0px" y="0px"
	 width="46px" height="28px" viewBox="0 0 46 28" enable-background="new 0 0 46 28" xml:space="preserve">
<g>
	<path fill="none" stroke="#FFFFFF" stroke-linecap="round" stroke-linejoin="round" stroke-miterlimit="10" d="M25.8,18.7h1.1
		c0.2,0,6.1,0.3,6-5.6c-0.1-3-2.5-5.5-5.5-5.5c-1,0-2,0.3-2.9,0.9c-0.6-2.9-3.1-5-6.1-5c-6.4,0.1-7,6.4-7,6.5c-2.4,0-5.1,2-5.1,4.4
		v0.2c0,3.4,3.2,4.4,5.6,4.4"/>
	<line fill="none" stroke="#FFFFFF" stroke-linecap="round" stroke-miterlimit="10" x1="15.3" y1="18.2" x2="15.3" y2="21.2"/>
	<line fill="none" stroke="#FFFFFF" stroke-linecap="round" stroke-miterlimit="10" x1="18.3" y1="16.2" x2="18.3" y2="18.2"/>
	<line fill="none" stroke="#FFFFFF" stroke-linecap="round" stroke-miterlimit="10" x1="24.3" y1="18.2" x2="24.3" y2="21.2"/>
	<line fill="none" stroke="#FFFFFF" stroke-linecap="round" stroke-miterlimit="10" x1="17.3" y1="24.2" x2="17.3" y2="26.2"/>
	<line fill="none" stroke="#FFFFFF" stroke-linecap="round" stroke-miterlimit="10" x1="21.3" y1="21.2" x2="21.3" y2="24.2"/>
	<path fill="none" stroke="#FFFFFF" stroke-linecap="round" stroke-linejoin="round" stroke-miterlimit="10" d="M34.1,14.8
		c2.3,0.9,5.2-0.3,7-2.4c-1.3,0.1-2.6-0.1-3.8-0.8c-3.4-1.8-4.7-6-3-9.4c0.3-0.5,0.6-1,1-1.4C33,1,30.9,2.4,29.8,4.6
		c-0.6,1.2-0.8,1.9-0.9,3"/>
</g>
</svg>
