<?xml version="1.0" encoding="utf-8"?>
<!-- Generator: Adobe Illustrator 19.1.0, SVG Export Plug-In . SVG Version: 6.00 Build 0)  -->
<svg version="1.1" id="Layer_1" xmlns="http://www.w3.org/2000/svg" xmlns:xlink="http://www.w3.org/1999/xlink" x="0px" y="0px"
	 width="46px" height="28px" viewBox="0 0 46 28" enable-background="new 0 0 46 28" xml:space="preserve">
<path fill="none" stroke="#FFFFFF" stroke-linecap="round" stroke-linejoin="round" stroke-miterlimit="10" d="M28.8,19.7h1.4
	c0.2,0,6.7-0.4,6.6-6.9c-0.1-3.3-2.7-6.5-6-6.5c-1.2,0-2.2,0.2-3.2,0.8C27,4,24.2,1.5,20.9,1.5c-7.1,0.1-7.3,7-7.3,7.1
	c-2.6,0-5.2,2.1-5.2,4.8v0.3c0,3.8,3,5.6,5.7,5.6"/>
<polyline fill="none" stroke="#FFFFFF" stroke-linecap="round" stroke-linejoin="round" stroke-miterlimit="10" points="18.6,15.8 
	20.7,20.7 16.9,18.8 19.6,25.9 "/>
<polyline fill="none" stroke="#FFFFFF" stroke-linecap="round" stroke-linejoin="round" stroke-miterlimit="10" points="25.2,18.7 
	26.5,21.7 24.1,20.5 25.8,25 "/>
</svg>
