<?xml version="1.0" encoding="utf-8"?>
<!-- Generator: Adobe Illustrator 19.1.0, SVG Export Plug-In . SVG Version: 6.00 Build 0)  -->
<svg version="1.1" id="Layer_1" xmlns="http://www.w3.org/2000/svg" xmlns:xlink="http://www.w3.org/1999/xlink" x="0px" y="0px"
	 width="46px" height="28px" viewBox="0 0 46 28" enable-background="new 0 0 46 28" xml:space="preserve">
<g id="_x30_E7NGr.tif_1_">
	<g>
		<path fill="#FFFFFF" d="M22.7,3.6c0-0.7,0-1.3,0-1.9C22.7,1.3,23,1,23.4,1C23.8,1,24,1.3,24,1.7c0,0.6,0,1.2,0,1.9
			c0.1-0.1,0.2-0.2,0.2-0.2c0.3-0.3,0.7-0.7,1-1c0.3-0.3,0.8-0.3,1.1,0c0.3,0.3,0.3,0.7-0.1,1c-0.7,0.7-1.4,1.4-2.2,2.1
			C24.1,5.6,24,5.7,24,5.8c0,2.2,0,4.4,0,6.6c0,0,0,0.1,0,0.2c0.1,0,0.1-0.1,0.2-0.1c1.9-1.1,3.7-2.1,5.6-3.2
			C30,9.1,30.1,9,30.1,8.9c0.3-1,0.5-1.9,0.8-2.9c0.1-0.5,0.6-0.7,1.1-0.5c0.3,0.2,0.4,0.5,0.3,0.9c-0.1,0.5-0.3,1-0.4,1.5
			c0,0.1,0,0.1,0,0.2c0.5-0.3,1-0.6,1.5-0.9c0.1-0.1,0.2-0.1,0.3-0.1C34,7,34.3,7.2,34.5,7.5c0.1,0.3,0,0.7-0.3,0.9
			c-0.5,0.3-0.9,0.5-1.4,0.8c-0.1,0-0.1,0.1-0.2,0.1c0.2,0.1,0.3,0.1,0.4,0.1c0.4,0.1,0.9,0.2,1.3,0.4c0.3,0.1,0.5,0.4,0.5,0.8
			c0,0.3-0.3,0.6-0.6,0.6c-0.1,0-0.2,0-0.3,0c-1-0.3-1.9-0.5-2.9-0.8c-0.1,0-0.2,0-0.3,0c-1.9,1.1-3.8,2.2-5.7,3.3
			c0,0-0.1,0-0.1,0.1c0.1,0,0.1,0.1,0.2,0.1c1.9,1.1,3.7,2.2,5.6,3.2c0.1,0.1,0.3,0.1,0.4,0c1-0.3,2-0.5,3-0.8
			c0.3-0.1,0.6,0,0.7,0.3c0.2,0.3,0.2,0.5,0,0.8c-0.1,0.1-0.3,0.3-0.4,0.3c-0.5,0.2-1.1,0.3-1.7,0.5c0.1,0.1,0.2,0.1,0.2,0.1
			c0.5,0.3,0.9,0.5,1.4,0.8c0.3,0.2,0.4,0.5,0.3,0.9c-0.1,0.3-0.4,0.5-0.8,0.5c-0.1,0-0.2-0.1-0.3-0.1c-0.5-0.3-1-0.6-1.5-0.9
			c0,0.1,0,0.2,0,0.2c0.1,0.5,0.3,1,0.4,1.5c0.1,0.5-0.1,0.8-0.5,1c-0.4,0.1-0.8-0.1-0.9-0.6c-0.3-1-0.5-1.9-0.8-2.9
			c0-0.1-0.1-0.2-0.2-0.2c-1.9-1.1-3.8-2.2-5.8-3.3c0,0-0.1,0-0.1,0c0,0.1,0,0.1,0,0.2c0,2.2,0,4.3,0,6.5c0,0.1,0.1,0.2,0.1,0.3
			c0.7,0.7,1.4,1.4,2.1,2.1c0.2,0.2,0.3,0.5,0.2,0.7c-0.1,0.5-0.8,0.7-1.2,0.3c-0.4-0.4-0.7-0.7-1.1-1.1c-0.1-0.1-0.1-0.1-0.2-0.2
			c0,0.1,0,0.2,0,0.3c0,0.5,0,1,0,1.6c0,0.4-0.3,0.7-0.7,0.7c-0.4,0-0.6-0.3-0.7-0.7c0-0.6,0-1.2,0-1.9c-0.1,0-0.1,0.1-0.1,0.1
			c-0.4,0.4-0.8,0.8-1.2,1.1c-0.4,0.4-1.1,0.2-1.2-0.3c-0.1-0.3,0-0.5,0.2-0.7c0.7-0.7,1.5-1.4,2.2-2.1c0.1-0.1,0.1-0.2,0.1-0.3
			c0-2.2,0-4.4,0-6.7c0,0,0,0,0-0.1c-0.1,0-0.1,0.1-0.2,0.1c-1.9,1.1-3.8,2.2-5.7,3.3c-0.1,0.1-0.2,0.2-0.2,0.3c-0.3,1-0.6,2-0.8,3
			c-0.1,0.4-0.5,0.6-0.9,0.5c-0.4-0.1-0.6-0.5-0.5-0.8c0.1-0.5,0.3-1.1,0.4-1.6c0,0,0-0.1,0-0.2c-0.5,0.3-1.1,0.6-1.6,0.9
			c-0.2,0.1-0.4,0.2-0.6,0.1c-0.3-0.1-0.5-0.3-0.5-0.6c0-0.3,0.1-0.5,0.3-0.7c0.5-0.3,0.9-0.5,1.4-0.8c0.1,0,0.1-0.1,0.2-0.1
			c-0.5-0.1-1-0.3-1.4-0.4c-0.1,0-0.3-0.1-0.4-0.1c-0.4-0.1-0.6-0.5-0.5-0.9c0.1-0.4,0.5-0.6,0.8-0.5c1,0.3,2,0.5,3,0.8
			c0.1,0,0.3,0,0.3,0c1.9-1.1,3.8-2.2,5.7-3.3c0,0,0.1-0.1,0.2-0.1c-0.1-0.1-0.1-0.1-0.2-0.1c-1.9-1.1-3.7-2.1-5.6-3.2
			c-0.1-0.1-0.2-0.1-0.4,0c-1,0.3-1.9,0.5-2.9,0.8c-0.6,0.2-1.1-0.3-1-0.8c0.1-0.3,0.2-0.5,0.5-0.5c0.5-0.1,1-0.3,1.6-0.4
			c0,0,0.1,0,0.2,0C14,9.3,14,9.2,13.9,9.2c-0.5-0.3-0.9-0.5-1.4-0.8c-0.4-0.2-0.5-0.7-0.3-1c0.2-0.4,0.6-0.5,1-0.2
			c0.5,0.3,1,0.6,1.6,0.9c0-0.2-0.1-0.3-0.1-0.4c-0.1-0.4-0.2-0.8-0.3-1.3c-0.1-0.5,0.1-0.9,0.5-1c0.4-0.1,0.8,0.1,0.9,0.6
			c0.3,1,0.5,1.9,0.8,2.9c0,0.1,0.1,0.2,0.2,0.3c1.9,1.1,3.9,2.2,5.8,3.3c0,0,0.1,0,0.1,0c0-0.1,0-0.1,0-0.2c0-2.2,0-4.3,0-6.5
			c0-0.1-0.1-0.2-0.2-0.3c-0.7-0.7-1.4-1.4-2.1-2.1c-0.2-0.2-0.3-0.4-0.3-0.7c0.1-0.5,0.8-0.7,1.2-0.3c0.4,0.4,0.8,0.7,1.1,1.1
			C22.6,3.5,22.6,3.5,22.7,3.6z"/>
	</g>
</g>
</svg>
