<?xml version="1.0" encoding="utf-8"?>
<!-- Generator: Adobe Illustrator 19.1.0, SVG Export Plug-In . SVG Version: 6.00 Build 0)  -->
<svg version="1.1" id="Layer_1" xmlns="http://www.w3.org/2000/svg" xmlns:xlink="http://www.w3.org/1999/xlink" x="0px" y="0px"
	 width="46px" height="28px" viewBox="0 0 46 28" enable-background="new 0 0 46 28" xml:space="preserve">
<g>
	<g opacity="0.7">
		<path fill="none" stroke="#FFFFFF" stroke-linecap="round" stroke-miterlimit="10" d="M3.2,6.8c4,0,4,2,7.9,2c4,0,4-2,7.9-2
			c4,0,4,2,7.9,2c4,0,4-2,7.9-2c4,0,4,2,7.9,2"/>
	</g>
	<g>
		<path fill="none" stroke="#FFFFFF" stroke-linecap="round" stroke-miterlimit="10" d="M3.2,11.1c4,0,4,2,7.9,2c4,0,4-2,7.9-2
			c4,0,4,2,7.9,2c4,0,4-2,7.9-2c4,0,4,2,7.9,2"/>
	</g>
	<g>
		<path fill="none" stroke="#FFFFFF" stroke-linecap="round" stroke-miterlimit="10" d="M3.2,15.4c4,0,4,2,7.9,2c4,0,4-2,7.9-2
			c4,0,4,2,7.9,2c4,0,4-2,7.9-2c4,0,4,2,7.9,2"/>
	</g>
	<g>
		<path fill="none" stroke="#FFFFFF" stroke-linecap="round" stroke-miterlimit="10" d="M3.2,19.7c4,0,4,2,7.9,2c4,0,4-2,7.9-2
			c4,0,4,2,7.9,2c4,0,4-2,7.9-2c4,0,4,2,7.9,2"/>
	</g>
</g>
</svg>
