<?xml version="1.0" encoding="utf-8"?>
<!-- Generator: Adobe Illustrator 16.0.0, SVG Export Plug-In . SVG Version: 6.00 Build 0)  -->
<!DOCTYPE svg PUBLIC "-//W3C//DTD SVG 1.1//EN" "http://www.w3.org/Graphics/SVG/1.1/DTD/svg11.dtd">
<svg version="1.1" id="Layer_1" xmlns="http://www.w3.org/2000/svg" xmlns:xlink="http://www.w3.org/1999/xlink" x="0px" y="0px"
	 width="100px" height="100px" viewBox="1 0 100 100" enable-background="new 1 0 100 100" xml:space="preserve">
<path fill="#471C37" d="M31.5,77.2c0,0,2.6-1.9,3.4-2.8c0.8-0.9,2-2.5,2-2.5s-4.7-0.7-7.9-1.6c-3.2-0.9-9.7-3.7-9.7-3.7
	s1.3-0.4,2.9-1.4c1.6-1.1,2-1.7,2-1.7s-4.7-1.3-7.5-2.4c-2.8-1-7.3-2.9-7.3-2.9s1.4-0.2,2.8-1.3c1.4-1.1,1.5-2.2,1.5-2.2
	S9.4,53.3,7,51.9c-2.4-1.5-5.3-3.7-5.3-3.7s5.2-4,8.7-5.5c3.5-1.5,9.1-2.6,9.1-2.6s-0.9-1.5-2.1-2.6c-1.1-1.1-4.2-2.9-4.2-2.9
	s5.6-1.9,8.3-2.5c2.7-0.6,8.2,0,8.2,0s-0.1-1.1-1.3-2.2c-1.2-1.1-2.7-2-2.7-2S33,25.4,37,24.4c4-1,10.8-0.6,10.8-0.6
	S46.1,22.1,45,21c-1.1-1.1-2.7-2.3-2.7-2.3s5.4-0.4,9.1-0.4c3.7,0.1,9.5,1.1,9.5,1.1s-0.7-1-1.4-2.3c-0.8-1.3-1.5-2.6-1.5-2.6
	s7.1,1.7,9.5,2.8c2.4,1,7.6,3.9,7.6,3.9s-0.1-1.8-1-3.5c-0.9-1.7-1.8-3-1.8-3s27.7,17.2,28.1,33.5c0.1,1.8-0.1,3.7-0.3,5.5
	c-1.5-0.7-3.1-1.3-4.7-1.8c-2.3-6.3-4.3-9.9-6.4-12.6c-2.4-2.9-6.9-8-9.6-9.1c2.3,1.9,6.8,6.2,9.7,11.8c2.3,4.6,3,5.6,3.8,9.2
	c-3.6-1.1-7.3-1.9-11-2.5c-0.7-0.1-1.4-0.2-2.1-0.3c-2-4.3-4.4-8.8-7.6-11.5c-3.7-3.2-8.3-6.7-11.1-7.5c2.6,1.5,8.7,6.8,11.8,10.9
	c2.2,3,2.9,5.1,4,7.7c-5-0.6-9.9-0.9-14.9-1.1c-2-3.7-4.5-7.5-7.6-9.6c-3.4-2.4-7.6-5-10-5.5c2.3,1.1,7.9,5.1,10.8,8.3
	c2.3,2.6,3,4.4,4.2,6.9c-11.1,0.4-22,1.7-32.8,3.6c9.4-0.8,18.9-1,28.3-0.6c-1.1,1.7-1.8,3-3.8,4.7c-2.6,2.2-7.5,4.5-9.5,4.9
	c2,0.1,5.6-1.3,8.6-2.6c2.7-1.3,5.1-4.1,7.1-6.9c1.8,0.1,3.5,0.2,5.3,0.3c2.9,0.1,5.8,0.3,8.7,0.5c-1.4,3-2,5-4.6,8.1
	c-3.1,3.6-9.1,8-11.6,9.2c2.7-0.4,7.2-3.3,10.8-5.9c3.3-2.4,6-6.8,8.1-11c2.7,0.3,5.4,0.6,8.1,1.1c2,0.3,3.9,0.7,5.9,1.2
	c-1.9,4.1-2,4.6-5,8c-3.4,3.9-9.1,8.9-11.6,10.4c2.9-0.7,8.5-4.7,11.1-6.7c2.4-1.8,5.8-5.5,8.2-11.1c3,0.8,5.9,1.9,8.7,3.2
	c-3.1,12.9-11.9,24.1-11.9,24.1s0.2-1.7-0.5-3.9c-0.8-2.2-1-2-1-2s-1.1,2.9-5,6.8c-3.9,3.9-8.9,5-8.9,5s0.7-1.1,0.8-2.4
	c0.1-1.3-0.3-2-0.3-2s-2.6,1.9-5.3,3c-2.7,1.2-8.6,2.5-8.6,2.5s1.6-1.9,1.9-3c0.3-1-0.3-1.9-0.3-1.9s-3.9,1.5-7.5,1.5
	c-3.6,0-7.7-1.5-7.7-1.5s1-0.5,1.7-1.8c0.8-1.3,0.2-1.9,0.2-1.9s-4.4,0.5-7.5,0.1C36.6,79.3,31.5,77.2,31.5,77.2z"/>
</svg>
